<?xml version="1.0" encoding="UTF-8"?>
<svg width="1005.6mm" height="191.27mm" version="1.1" viewBox="0 0 1005.6 191.27" xmlns="http://www.w3.org/2000/svg" xmlns:xlink="http://www.w3.org/1999/xlink">
  <defs>
    <linearGradient id="linearGradient2217">
      <stop stop-color="#c7c7c7" offset="0"/>
      <stop stop-color="#f5f5f5" offset=".5"/>
      <stop stop-color="#fff" offset="1"/>
    </linearGradient>
    <clipPath id="clipPath897">
      <path d="m256.88 43.814c-22.336 14.383-37.417 43.639-37.417 77.003 0 33.362 15.081 62.618 37.415 77.003-10.828-2.0024-21.894-4.6514-32.373-7.2825-21.118-5.3023-39.387-10.212-49.93-10.363-9.0712-0.12968-47.742-2.3042-86.805-5.7997-19.451-1.7406-51.958-5.5773-69.205-6.4195-0.07415-8e-3 -0.1487-0.0124-0.22331-0.0125-12.93 0-25.051-8.7529-31.713-23.389-6.6614-14.636-6.6614-32.837 0-47.473 6.6614-14.636 18.783-23.389 31.713-23.389 0.07548 5.6e-5 0.1509-0.0041 0.22592-0.01251 17.247-0.84248 49.752-4.679 69.202-6.4195 39.063-3.4955 77.734-5.67 86.805-5.7997 10.543-0.15074 28.812-5.0601 49.93-10.362 10.48-2.6313 21.546-5.2805 32.375-7.2825z" color="#000000" color-rendering="auto" dominant-baseline="auto" fill="#d6d6d6" image-rendering="auto" shape-rendering="auto" solid-color="#000000" stop-color="#000000" style="font-feature-settings:normal;font-variant-alternates:normal;font-variant-caps:normal;font-variant-east-asian:normal;font-variant-ligatures:normal;font-variant-numeric:normal;font-variant-position:normal;font-variation-settings:normal;inline-size:0;isolation:auto;mix-blend-mode:normal;shape-margin:0;shape-padding:0;text-decoration-color:#000000;text-decoration-line:none;text-decoration-style:solid;text-indent:0;text-orientation:mixed;text-transform:none;white-space:normal"/>
    </clipPath>
    <linearGradient id="linearGradient2219" x1="253.34" x2="253.34" y1="75.626" y2="-33.62" gradientTransform="translate(2.6924 256)" gradientUnits="userSpaceOnUse" xlink:href="#linearGradient2217"/>
    <linearGradient id="linearGradient2229" x1="-56.138" x2="-20.263" y1="120.82" y2="120.82" gradientUnits="userSpaceOnUse">
      <stop stop-color="#f54100" offset="0"/>
      <stop stop-color="#ff8000" offset="1"/>
    </linearGradient>
    <linearGradient id="linearGradient2237" x1="408.28" x2="398.76" y1="35.088" y2=".98506" gradientTransform="translate(2.6924 256)" gradientUnits="userSpaceOnUse" xlink:href="#linearGradient2217"/>
    <linearGradient id="linearGradient2247" x1="422.12" x2="422.12" y1="-26.4" y2="100.48" gradientTransform="translate(2.6924 256)" gradientUnits="userSpaceOnUse" xlink:href="#linearGradient2217"/>
  </defs>
  <g transform="translate(-20.928 -50.889)">
    <g fill="#05fdff"></g>
    <rect x="-35.727" y="-72.377" width="1118.9" height="437.8" fill="#fff" stop-color="#000000" stroke="#3c3c3c" stroke-linecap="round" stroke-linejoin="round" stroke-width="3.3162" style="font-variation-settings:normal"/>
    <g transform="translate(-38.839 -130.46)">
      <g>
        <path d="m478.19 276.98a71.133 83.891 0 0 1-71.133 83.891 71.133 83.891 0 0 1-71.133-83.891 71.133 83.891 0 0 1 71.133-83.891 71.133 83.891 0 0 1 71.133 83.891z" fill="url(#linearGradient2247)"/>
        <path d="m446.85 276.98a55.46 70.354 0 0 1-55.46 70.354 55.46 70.354 0 0 1-55.46-70.354 55.46 70.354 0 0 1 55.46-70.354 55.46 70.354 0 0 1 55.46 70.354z"/>
        <path d="m390.8 250.23c-8.1473 0-15.486 5.5968-19.352 14.229-3.8656 8.6317-3.8656 19.093 0 27.725 3.8656 8.6317 11.204 14.229 19.352 14.229 3.1374 0 5.9936-2.0644 9.2969-4.7324 3.3033-2.668 6.8447-6.1429 10.133-9.6094 6.5763-6.9329 12.127-13.842 12.127-13.842l1.0176-1.2656-1.0273-1.2559s-5.118-6.2525-11.492-12.529c-3.1871-3.1384-6.6894-6.2914-10.102-8.7129s-6.6715-4.2344-9.9531-4.2344z" color="#000000" color-rendering="auto" dominant-baseline="auto" fill="url(#linearGradient2237)" image-rendering="auto" shape-rendering="auto" solid-color="#000000" stop-color="#000000" style="font-feature-settings:normal;font-variant-alternates:normal;font-variant-caps:normal;font-variant-east-asian:normal;font-variant-ligatures:normal;font-variant-numeric:normal;font-variant-position:normal;font-variation-settings:normal;inline-size:0;isolation:auto;mix-blend-mode:normal;shape-margin:0;shape-padding:0;text-decoration-color:#000000;text-decoration-line:none;text-decoration-style:solid;text-indent:0;text-orientation:mixed;text-transform:none;white-space:normal"/>
        <path d="m393.28 204.68c-5.9594-0.2589-12.017 0.64782-17.961 2.8242a2 2 0 0 0-1.1894 2.5664 2 2 0 0 0 2.5644 1.1894c21.845-7.9984 45.21 2.396 58.426 26.428 13.216 24.032 12.901 56.333-0.76757 79.938-13.669 23.605-37.205 33.269-58.9 24.592a2 2 0 0 0-2.5996 1.1152 2 2 0 0 0 1.1152 2.5996c23.59 9.4354 49.406-1.3627 63.848-26.303 14.442-24.94 14.762-58.499 0.81054-83.869-10.464-19.028-27.467-30.303-45.346-31.08z" color="#000000" color-rendering="auto" dominant-baseline="auto" fill="#3c3c3c" image-rendering="auto" shape-rendering="auto" solid-color="#000000" stop-color="#000000" style="font-feature-settings:normal;font-variant-alternates:normal;font-variant-caps:normal;font-variant-east-asian:normal;font-variant-ligatures:normal;font-variant-numeric:normal;font-variant-position:normal;font-variation-settings:normal;inline-size:0;isolation:auto;mix-blend-mode:normal;shape-margin:0;shape-padding:0;text-decoration-color:#000000;text-decoration-line:none;text-decoration-style:solid;text-indent:0;text-orientation:mixed;text-transform:none;white-space:normal"/>
      </g>
      <g transform="translate(125.91 156.16)" shape-rendering="auto">
        <path d="m-8.3242 85.024c-0.18379 1.9246-2.8045 5.392-7.0116 9.1096-4.2071 3.7176-9.8355 7.7748-15.454 11.498-11.237 7.4467-22.376 13.558-22.376 13.558l-2.9725 1.6269 2.9725 1.6269s11.139 6.111 22.376 13.558c5.6185 3.7234 11.247 7.7805 15.454 11.498 4.2071 3.7176 6.8278 7.1851 7.0116 9.1096z" color="#000000" color-rendering="auto" dominant-baseline="auto" fill="url(#linearGradient2229)" image-rendering="auto" solid-color="#000000" stop-color="#000000" style="font-feature-settings:normal;font-variant-alternates:normal;font-variant-caps:normal;font-variant-east-asian:normal;font-variant-ligatures:normal;font-variant-numeric:normal;font-variant-position:normal;font-variation-settings:normal;inline-size:0;isolation:auto;mix-blend-mode:normal;shape-margin:0;shape-padding:0;text-decoration-color:#000000;text-decoration-line:none;text-decoration-style:solid;text-indent:0;text-orientation:mixed;text-transform:none;white-space:normal"/>
        <path d="m-11.364 90.985c-0.11842 1.604-1.807 4.4939-4.5177 7.5924-2.7107 3.0984-6.3372 6.4799-9.9573 9.5831-7.2402 6.2064-14.417 11.3-14.417 11.3l-1.9153 1.356 1.9153 1.356s7.1769 5.0932 14.417 11.3c3.6201 3.1032 7.2466 6.4846 9.9573 9.5831 2.7107 3.0984 4.3993 5.9884 4.5177 7.5924z" color="#000000" color-rendering="auto" dominant-baseline="auto" fill="#3c3c3c" image-rendering="auto" solid-color="#000000" stop-color="#000000" style="font-feature-settings:normal;font-variant-alternates:normal;font-variant-caps:normal;font-variant-east-asian:normal;font-variant-ligatures:normal;font-variant-numeric:normal;font-variant-position:normal;font-variation-settings:normal;inline-size:0;isolation:auto;mix-blend-mode:normal;shape-margin:0;shape-padding:0;text-decoration-color:#000000;text-decoration-line:none;text-decoration-style:solid;text-indent:0;text-orientation:mixed;text-transform:none;white-space:normal"/>
      </g>
      <g shape-rendering="auto">
        <path d="m382.79 199.98c-22.336 14.383-37.417 43.639-37.417 77.003 0 33.362 15.081 62.618 37.415 77.003-10.828-2.0024-21.894-4.6514-32.373-7.2825-21.118-5.3023-39.387-10.212-49.93-10.363-9.0712-0.12968-47.742-2.3042-86.805-5.7997-19.451-1.7406-51.958-5.5773-69.205-6.4195-0.0742-8e-3 -0.1487-0.0124-0.22331-0.0125-12.93 0-25.051-8.7529-31.713-23.389-6.6614-14.636-6.6614-32.837 0-47.473 6.6614-14.636 18.783-23.389 31.713-23.389 0.0755 5e-5 0.1509-4e-3 0.22592-0.0125 17.247-0.84248 49.752-4.679 69.202-6.4196 39.063-3.4955 77.734-5.67 86.805-5.7997 10.543-0.15074 28.812-5.0601 49.93-10.362 10.48-2.6313 21.546-5.2805 32.375-7.2825z" color="#000000" color-rendering="auto" dominant-baseline="auto" fill="url(#linearGradient2219)" image-rendering="auto" solid-color="#000000" stop-color="#000000" style="font-feature-settings:normal;font-variant-alternates:normal;font-variant-caps:normal;font-variant-east-asian:normal;font-variant-ligatures:normal;font-variant-numeric:normal;font-variant-position:normal;font-variation-settings:normal;inline-size:0;isolation:auto;mix-blend-mode:normal;shape-margin:0;shape-padding:0;text-decoration-color:#000000;text-decoration-line:none;text-decoration-style:solid;text-indent:0;text-orientation:mixed;text-transform:none;white-space:normal"/>
        <g fill="#3c3c3c">
          <path d="m226.51 218.26c-16.931 0-32.375 11.455-40.615 29.559s-8.2398 40.218 0 58.322 23.684 29.559 40.615 29.559a2.3175 2.3175 0 0 0 2.3175-2.3175 2.3175 2.3175 0 0 0-2.3175-2.3175c-14.839 0-28.751-10.046-36.396-26.844-7.6452-16.798-7.6452-37.686 0-54.484 7.6452-16.798 21.557-26.844 36.396-26.844a2.3175 2.3175 0 0 0 2.3175-2.3175 2.3175 2.3175 0 0 0-2.3175-2.3175z" color="#000000" color-rendering="auto" dominant-baseline="auto" image-rendering="auto" solid-color="#000000" stop-color="#000000" style="font-feature-settings:normal;font-variant-alternates:normal;font-variant-caps:normal;font-variant-east-asian:normal;font-variant-ligatures:normal;font-variant-numeric:normal;font-variant-position:normal;font-variation-settings:normal;inline-size:0;isolation:auto;mix-blend-mode:normal;shape-margin:0;shape-padding:0;text-decoration-color:#000000;text-decoration-line:none;text-decoration-style:solid;text-indent:0;text-orientation:mixed;text-transform:none;white-space:normal"/>
          <path transform="translate(125.91 156.16)" d="m191.41 52.006a2.9 2.9 0 0 0-2.0566 0.80078c-16.967 16.16-26.803 41.176-26.895 67.723-0.0913 26.547 9.5707 51.668 26.422 68.012a2.9 2.9 0 0 0 4.1016-0.0625 2.9 2.9 0 0 0-0.0625-4.0996c-15.505-15.038-24.749-38.708-24.662-63.828 0.0864-25.12 9.4922-48.683 25.096-63.545a2.9 2.9 0 0 0 0.0996-4.0996 2.9 2.9 0 0 0-2.043-0.90039z" clip-path="url(#clipPath897)" color="#000000" color-rendering="auto" dominant-baseline="auto" image-rendering="auto" solid-color="#000000" stop-color="#000000" style="font-feature-settings:normal;font-variant-alternates:normal;font-variant-caps:normal;font-variant-east-asian:normal;font-variant-ligatures:normal;font-variant-numeric:normal;font-variant-position:normal;font-variation-settings:normal;inline-size:0;isolation:auto;mix-blend-mode:normal;shape-margin:0;shape-padding:0;text-decoration-color:#000000;text-decoration-line:none;text-decoration-style:solid;text-indent:0;text-orientation:mixed;text-transform:none;white-space:normal"/>
          <path d="m412.55 191.34c-0.31512 0-0.62958 3e-3 -0.94361 8e-3 -19.831 0.17847-42.466 5.9308-63.174 11.13-21.036 5.2818-39.253 10.123-48.57 10.61-9.6759 0.50578-47.611 2.8224-86.438 6.2968-19.413 1.7372-51.472 5.8182-68.217 6.9122-14.611 0-27.94 9.8854-35.051 25.51s-7.111 34.708 0 50.332c7.111 15.624 20.439 25.51 35.051 25.51 16.745 1.094 48.803 5.1751 68.217 6.9122 38.827 3.4744 76.762 5.791 86.438 6.2968 9.3174 0.48704 27.534 5.3279 48.57 10.61 20.708 5.1993 43.343 10.954 63.174 11.132 0.31403 5e-3 0.62849 8e-3 0.94361 8e-3 38.033 0 68.141-38.719 68.141-85.635s-30.108-85.633-68.141-85.633zm0 6.0002c33.919 0 62.14 35.274 62.14 79.633s-28.221 79.634-62.14 79.634c-33.919 0-62.14-35.275-62.14-79.634s28.221-79.633 62.14-79.633zm-31.08 3.3652c-22.122 14.246-37.06 43.222-37.06 76.268 0 33.044 14.937 62.021 37.058 76.268-10.725-1.9833-21.685-4.6071-32.064-7.213-20.916-5.2517-39.011-10.115-49.453-10.264-8.9847-0.12845-47.286-2.2822-85.977-5.7444-19.266-1.724-51.462-5.5241-68.544-6.3583a2 2 0 0 0-0.22118-0.0124c-12.806 0-24.812-8.6694-31.41-23.166-6.5978-14.497-6.5978-32.523 0-47.02 6.5978-14.497 18.604-23.166 31.41-23.166a2 2 0 0 0 0.22376-0.0124c17.083-0.83443 49.277-4.6344 68.542-6.3583 38.69-3.4622 76.992-5.6159 85.977-5.7444 10.443-0.1493 28.537-5.0118 49.453-10.263 10.38-2.6062 21.341-5.2301 32.066-7.213z" color="#000000" color-rendering="auto" dominant-baseline="auto" image-rendering="auto" solid-color="#000000" stop-color="#000000" style="font-feature-settings:normal;font-variant-alternates:normal;font-variant-caps:normal;font-variant-east-asian:normal;font-variant-ligatures:normal;font-variant-numeric:normal;font-variant-position:normal;font-variation-settings:normal;inline-size:0;isolation:auto;mix-blend-mode:normal;shape-margin:0;shape-padding:0;text-decoration-color:#000000;text-decoration-line:none;text-decoration-style:solid;text-indent:0;text-orientation:mixed;text-transform:none;white-space:normal"/>
        </g>
      </g>
      <g fill="none" stroke="#3c3c3c" stroke-linecap="round" stroke-linejoin="round">
        <path d="m293.17 256.53h-15.643l-16.146 16.146-15.439-8.914v22.35h-21.277" stroke-width="4"/>
        <g>
          <path d="m296.04 308.01c6.1773 2.2402 12.894 1.8232 16.146 4.5734s13.157 21.057 23.647 25.661" stop-color="#000000" stroke-width="4.5" style="font-variation-settings:normal"/>
          <path d="m228.88 322.06c-32.388-13.74-29.225-53.837-29.225-53.837h16.332" stop-color="#000000" stroke-width="4" style="font-variation-settings:normal"/>
          <path d="m193.32 238.99h41.105l8.0155-11.377" stop-color="#000000" stroke-width="4" style="font-variation-settings:normal"/>
          <g stroke-width="3">
            <path d="m193.32 238.99h-34.283l-6.7171 11.634" stop-color="#000000" style="font-variation-settings:normal"/>
            <path d="m122.37 269.4 22.878 4e-3c-5.8701 16.213 3.2126 29.177 3.2126 29.177" stop-color="#000000" style="font-variation-settings:normal"/>
            <path d="m195.76 318.18h-16.763l-9.5528-9.5528h-10.974" stop-color="#000000" style="font-variation-settings:normal"/>
          </g>
          <path d="m144.38 283.4h10.485" stop-color="#000000" stroke-width="2.9215" style="font-variation-settings:normal"/>
          <path d="m296.04 308.01h-19.703s0.175 12.141 6.5443 18.821" stop-color="#000000" stroke-width="4" style="font-variation-settings:normal"/>
          <path d="m298.07 242.98 31.355-8.4016s1.0536-8.5342 5.1752-14.081" stop-color="#000000" stroke-width="4.5" style="font-variation-settings:normal"/>
        </g>
      </g>
    </g>
    <g transform="matrix(2.1195 0 0 2.1195 713.26 234.72)" style="paint-order:stroke markers fill;shape-inside:url(#rect852);white-space:pre" aria-label="Rinzler">
      <path d="m-120.2-15.051 10.88-51.52h25.76q5.12 0 8.64 2.24 3.6 2.16 5.04 6.16 1.52 3.92 0.32 9.28-1.04 5.2-4.56 9.12-3.44 3.92-8.4 5.84 0.88 0.88 1.28 2 0.48 1.04 0.88 2.96l3.2 13.92h-13.44l-3.04-13.12q-0.4-1.84-1.36-2.48-0.88-0.72-2.96-0.72h-5.92l-3.44 16.32zm18.4-26.24h9.52q3.76 0 6.24-1.84 2.56-1.92 3.36-5.76 0.88-3.84-0.16-5.76-0.96-2-5.6-2h-10.08z" style="paint-order:stroke markers fill"/>
      <path d="m-59.565-58.971 2.08-9.68h14l-2.08 9.68zm-8.24 43.92 6-28.4h-5.6l3.12-9.52h17.36l-8 37.92z" style="paint-order:stroke markers fill"/>
      <path d="m-46.605-15.051 8-37.92h12l-0.24 3.28q2.56-1.6 6.32-2.8 3.84-1.28 7.84-1.28 7.36 0 9.92 3.84 2.56 3.76 1.12 10.56l-5.12 24.32h-12.88l4.88-23.28q0.72-3.2-0.24-4.56t-4.48-1.36q-2.08 0-4.56 0.96t-4.24 2.4l-5.44 25.84z" style="paint-order:stroke markers fill"/>
      <path d="m-0.60509-15.051 1.44-6.88 21.92-20.8h-16.88l2.16-10.24h33.2l-1.6 7.52-21.44 20.48h17.68l-2.08 9.92z" style="paint-order:stroke markers fill"/>
      <path d="m51.795-14.251q-5.76 0-8.16-2.72-2.32-2.72-1.04-8.72l9.2-43.28h12.88l-8.96 42q-0.32 1.84 0.24 2.56 0.64 0.64 2.16 0.64 2.16 0 3.92-0.56l-1.84 8.72q-2 0.72-3.92 1.04-1.84 0.32-4.48 0.32z" style="paint-order:stroke markers fill"/>
      <path d="m84.995-14.251q-6 0-10.56-2.16-4.48-2.24-6.48-6.64t-0.64-10.96q1.92-9.04 7.6-14.4t16.4-5.36q5.76 0 9.52 2.32 3.84 2.24 5.36 6.08t0.48 8.72l-1.44 6.8h-26.88q0.08 3.76 2.64 5.28 2.56 1.44 8.88 1.44 3.12 0 6.48-0.56t5.68-1.44l-1.76 8.4q-2.96 1.28-6.88 1.84-3.92 0.64-8.4 0.64zm-5.04-23.04h15.68l0.32-1.68q0.64-2.8-0.72-4.4-1.36-1.68-5.36-1.68-4.64 0-6.88 1.92-2.16 1.84-3.04 5.84z" style="paint-order:stroke markers fill"/>
      <path d="m108.75-15.051 8-37.92h12.24l-0.32 3.52q2.8-1.52 6.72-2.72 3.92-1.28 7.68-1.6l-2 9.68q-2.16 0.24-4.8 0.8-2.64 0.48-5.12 1.2-2.4 0.72-4.16 1.52l-5.36 25.52z" style="paint-order:stroke markers fill"/>
    </g>
  </g>
</svg>
